<svg xmlns="http://www.w3.org/2000/svg" viewBox="0 0 45.27 45.11"><defs><style>.cls-1{fill:#fff;}</style></defs><title>moon</title><g id="Capa_2" data-name="Capa 2"><g id="Capa_1-2" data-name="Capa 1"><path class="cls-1" d="M44.2,25.67a1.59,1.59,0,0,0-1.33.29,17,17,0,0,1-5.15,3,16.14,16.14,0,0,1-5.84,1,17,17,0,0,1-17-17,17.82,17.82,0,0,1,.93-5.61,15.52,15.52,0,0,1,2.78-5A1.48,1.48,0,0,0,18.34.33,1.59,1.59,0,0,0,17,0,23.34,23.34,0,0,0,4.74,8.26,22.9,22.9,0,1,0,45.18,27.53a1.37,1.37,0,0,0-1-1.85"/></g></g></svg>