<svg xmlns="http://www.w3.org/2000/svg" viewBox="0 0 56.88 75.93"><defs><style>.cls-1{fill:#fff;}</style></defs><title>Recurso 1</title><g id="Capa_2" data-name="Capa 2"><g id="Capa_1-2" data-name="Capa 1"><path class="cls-1" d="M35.8,17.2A21.08,21.08,0,1,0,56.88,38.28,21.1,21.1,0,0,0,35.8,17.2M35.8,57a18.69,18.69,0,0,1,0-37.38ZM37,64.76V74.88a1,1,0,1,1-2.1,0V64.76a1,1,0,1,1,2.1,0M20.86,58.59a1,1,0,0,1,.23,1.47l-6,8.2A1,1,0,1,1,13.44,67l6-8.19a1,1,0,0,1,1.46-.23m-9.18-13A1.05,1.05,0,0,1,11,46.92L1.37,50A1.08,1.08,0,0,1,1,50.1a1,1,0,0,1-.32-2l9.63-3.13a1.05,1.05,0,0,1,1.32.67m.21-15.91a1,1,0,0,1-1.32.67L.94,27.23a1,1,0,1,1,.65-2l9.63,3.13a1.05,1.05,0,0,1,.67,1.32M14,8.51a1,1,0,0,1,1.7-1.23l6,8.2a1,1,0,1,1-1.69,1.23Zm21.56,2.66V1a1,1,0,1,1,2.1,0V11.18a1,1,0,0,1-2.1,0"/></g></g></svg>